# xmcd
#
# Track frame offsets: 
#        150
#        17977
#        35429
#        59517
#        81857
#        103531
#        124356
#        150945
#        171031
#        191359
#        212154
#
# Disc length: 3006 seconds
#
# Revision: 0
# Processed by: cddbd v1.5.2PL0 Copyright (c) Steve Scherf et al.
# Submitted via: ExactAudioCopy v1.3
#
DISCID=8d0bbc0b
DTITLE=Gretchen Peters - Dancing With The Beast
DYEAR=2018
DGENRE=Folk/Rock
TTITLE0=Arguing With Ghosts
TTITLE1=Wichita
TTITLE2=The Boy From Rye
TTITLE3=Disappearing Act
TTITLE4=Lowlands
TTITLE5=The Show
TTITLE6=Dancing With The Beast
TTITLE7=Truckstop Angel
TTITLE8=Say Grace
TTITLE9=Lay Low
TTITLE10=Love That Makes A Cup of Tea
EXTD=
EXTT0=
EXTT1=
EXTT2=
EXTT3=
EXTT4=
EXTT5=
EXTT6=
EXTT7=
EXTT8=
EXTT9=
EXTT10=
PLAYORDER=
